<?xml version="1.0" standalone="no"?>
<!DOCTYPE svg PUBLIC "-//W3C//DTD SVG 20010904//EN"
 "http://www.w3.org/TR/2001/REC-SVG-20010904/DTD/svg10.dtd">
<svg version="1.0" xmlns="http://www.w3.org/2000/svg"
 width="300.000000pt" height="158.000000pt" viewBox="0 0 300.000000 158.000000"
 preserveAspectRatio="xMidYMid meet">
<metadata>
Created by potrace 1.10, written by Peter Selinger 2001-2011
</metadata>
<g transform="translate(0.000000,158.000000) scale(0.100000,-0.100000)"
fill="#000000" stroke="none">
<path d="M88 1542 c-9 -15 -14 -38 -11 -52 3 -18 -2 -32 -16 -44 -24 -22 -28
-54 -7 -62 18 -7 9 -34 -10 -34 -11 0 -14 -17 -14 -71 0 -60 2 -70 15 -65 10
3 18 -1 21 -12 21 -66 29 -74 80 -97 41 -18 60 -22 89 -15 25 6 39 4 48 -5 16
-16 87 -25 87 -10 0 9 -66 45 -84 45 -11 0 -66 42 -97 73 -15 15 -30 24 -33
18 -10 -15 2 -34 39 -61 45 -33 44 -40 -5 -29 -41 9 -100 58 -100 82 0 7 -7
22 -15 33 -20 26 -19 48 5 96 15 31 17 45 9 55 -9 10 -6 25 10 62 11 28 21 59
21 70 0 16 6 21 28 21 45 1 225 11 260 14 84 10 31 16 -129 16 l-175 0 -16
-28z"/>
<path d="M505 1555 c-38 -7 -88 -14 -110 -14 -25 -1 -35 -4 -27 -10 22 -14
205 -1 218 15 13 16 40 19 49 5 3 -5 -5 -11 -17 -14 l-23 -4 25 -10 c20 -9 26
-8 28 6 2 9 11 22 20 29 13 10 7 12 -39 11 -30 0 -85 -7 -124 -14z"/>
<path d="M770 1560 c0 -12 37 -12 65 0 15 7 10 9 -22 9 -24 1 -43 -3 -43 -9z"/>
<path d="M862 1564 c5 -4 35 -10 71 -13 4 -1 7 -9 7 -19 0 -30 19 -41 51 -30
16 5 29 16 29 23 0 7 3 20 6 29 5 14 -6 16 -82 16 -48 0 -85 -3 -82 -6z"/>
<path d="M1206 1555 c5 -12 9 -13 20 -4 10 8 47 10 127 5 76 -4 107 -3 97 4
-8 5 -68 10 -132 10 -101 0 -117 -2 -112 -15z"/>
<path d="M1582 1548 c-20 -9 -47 -17 -60 -18 -12 0 -39 -7 -59 -15 -19 -8 -44
-15 -54 -15 -24 0 -25 -16 -1 -22 27 -6 52 2 52 18 0 16 26 19 35 4 3 -6 15
-6 29 0 13 5 26 6 29 3 3 -3 18 4 33 16 15 12 44 24 66 27 21 4 41 10 43 15
10 15 -75 5 -113 -13z"/>
<path d="M2103 1563 c26 -2 67 -2 90 0 23 2 2 3 -48 3 -49 0 -68 -1 -42 -3z"/>
<path d="M2741 1566 c2 -3 36 -7 74 -10 44 -3 61 -1 45 4 -26 8 -127 13 -119
6z"/>
<path d="M555 1503 c-46 -5 -73 -23 -33 -23 40 0 88 12 88 21 0 5 -3 8 -7 7
-5 -1 -26 -3 -48 -5z"/>
<path d="M699 1509 c0 -2 -2 -17 -3 -33 -1 -16 -7 -31 -14 -34 -23 -7 -12 -21
16 -19 23 2 27 -2 25 -21 -2 -16 5 -26 22 -34 25 -11 29 -23 25 -63 -2 -16 0
-17 14 -6 19 16 21 42 4 59 -9 9 -6 12 13 12 24 0 49 16 49 32 0 13 -20 9 -36
-7 -12 -11 -20 -12 -35 -5 -10 6 -19 14 -19 19 0 5 -10 21 -22 37 -12 15 -23
34 -24 42 -2 13 -13 29 -15 21z"/>
<path d="M1045 1490 c-4 -6 14 -10 47 -9 42 1 48 3 28 9 -36 12 -68 12 -75 0z"/>
<path d="M1660 1476 c-27 -14 -46 -32 -48 -44 -2 -11 -10 -26 -17 -32 -22 -18
-68 -178 -69 -237 -1 -33 -5 -53 -13 -53 -6 0 -13 5 -15 11 -2 6 -36 11 -83
11 -76 1 -84 -1 -156 -41 -42 -24 -87 -52 -102 -64 -14 -12 -37 -31 -52 -41
-41 -30 -65 -71 -70 -117 -3 -35 1 -47 23 -71 15 -16 44 -39 65 -50 20 -12 37
-25 37 -30 0 -4 6 -8 14 -8 20 0 98 -42 113 -60 7 -8 13 -24 13 -35 0 -11 10
-25 22 -30 13 -6 24 -17 26 -26 4 -24 -26 -31 -46 -11 -10 9 -28 18 -40 19
-13 2 -41 12 -64 23 -22 11 -45 17 -50 14 -5 -3 -17 1 -26 9 -9 8 -30 22 -47
30 -30 16 -85 66 -108 99 -8 12 -17 15 -26 9 -36 -23 119 -155 218 -185 25 -8
84 -29 131 -46 102 -37 116 -40 111 -20 -2 8 -6 28 -9 45 -3 16 -18 42 -33 56
-16 15 -29 36 -29 46 0 27 -23 44 -104 78 -64 26 -167 103 -174 129 -5 20 49
91 101 131 61 47 212 125 243 125 13 0 26 -4 29 -10 3 -5 18 -7 34 -4 25 5 30
1 49 -35 12 -23 22 -44 22 -46 0 -3 -15 -5 -33 -5 -47 0 -113 -46 -137 -96
-74 -152 70 -319 225 -260 59 23 106 82 113 142 6 58 -12 58 -27 -1 -6 -25
-15 -45 -20 -45 -6 0 -12 -8 -16 -19 -10 -31 -77 -55 -136 -48 -53 6 -99 36
-99 64 0 7 -4 13 -10 13 -13 0 -23 63 -15 98 10 49 68 107 120 122 40 11 51
11 81 -4 19 -9 32 -21 29 -26 -3 -6 5 -10 19 -10 30 0 33 12 10 31 -13 11 -15
28 -9 108 11 171 48 289 103 331 22 16 24 19 9 20 -32 0 -56 -19 -78 -63 -36
-69 -59 -166 -66 -270 -5 -82 -9 -97 -22 -95 -13 3 -16 20 -16 103 0 152 46
283 118 335 39 29 72 30 94 3 7 -10 13 -11 18 -3 9 15 -36 60 -60 60 -11 0
-40 -11 -65 -24z"/>
<path d="M609 1446 c-2 -2 -42 -6 -88 -9 -78 -6 -101 -11 -90 -22 8 -7 189 -8
196 -1 12 12 11 36 -1 36 -7 0 -15 -2 -17 -4z"/>
<path d="M1790 1411 c0 -5 -9 -13 -20 -16 -27 -9 -64 -84 -84 -172 -19 -84
-29 -280 -15 -288 5 -4 9 -16 9 -29 0 -12 21 -49 46 -82 57 -72 73 -109 67
-152 -3 -18 -1 -38 4 -45 5 -6 10 -48 11 -92 2 -77 -18 -163 -53 -231 -7 -13
-10 -36 -7 -51 l5 -27 34 40 c37 44 54 96 83 253 11 61 10 66 -14 113 -14 28
-26 59 -26 70 0 38 -41 118 -61 118 -11 0 -26 14 -36 33 -15 27 -18 54 -16
180 3 199 31 305 89 343 23 16 30 16 103 -5 43 -11 88 -21 99 -21 12 0 25 -7
30 -15 6 -12 27 -16 90 -16 129 -1 292 23 292 43 0 4 11 8 24 8 31 0 56 9 56
21 0 13 -91 -1 -107 -17 -10 -10 -38 -14 -89 -14 -48 0 -74 -4 -74 -11 0 -7
-10 -9 -25 -7 -14 3 -28 1 -31 -3 -5 -8 -51 -5 -110 6 -11 3 -31 14 -44 25
-13 11 -34 20 -47 20 -33 0 -37 1 -48 10 -15 12 -135 22 -135 11z"/>
<path d="M2550 1410 c-38 -9 -12 -18 54 -19 33 0 64 -5 70 -11 5 -5 27 -10 47
-10 21 0 41 -4 44 -10 3 -5 14 -10 23 -10 26 0 144 -59 175 -88 l27 -26 0 58
c0 35 -4 55 -10 51 -5 -3 -10 -16 -11 -28 0 -12 -3 -16 -6 -9 -2 6 -13 12 -23
12 -26 0 -130 41 -130 51 0 5 -8 9 -18 9 -10 0 -22 3 -26 7 -4 4 -24 9 -44 10
-42 3 -107 11 -107 13 0 5 -44 5 -65 0z"/>
<path d="M360 1385 c-25 -13 -58 -29 -75 -36 -24 -10 -26 -13 -12 -17 34 -7
87 9 112 34 20 20 34 47 23 43 -2 0 -23 -11 -48 -24z"/>
<path d="M520 1360 c0 -5 5 -10 10 -10 23 0 9 -50 -20 -71 -31 -23 -31 -39 -1
-39 23 0 58 38 66 71 5 21 1 29 -19 42 -29 20 -36 21 -36 7z"/>
<path d="M422 1320 c-33 -68 -26 -96 11 -44 11 15 17 37 15 57 l-4 32 -22 -45z"/>
<path d="M2545 1353 c-26 -7 -67 -34 -60 -41 3 -3 15 -1 28 5 12 6 38 18 57
27 34 15 20 20 -25 9z"/>
<path d="M2345 1287 c-45 -18 -71 -35 -64 -42 8 -8 109 36 109 47 0 10 -8 9
-45 -5z"/>
<path d="M2045 1251 c-3 -5 -20 -13 -38 -16 -17 -4 -57 -20 -87 -36 -48 -25
-58 -37 -81 -86 -52 -113 -59 -134 -58 -176 1 -41 2 -41 18 23 32 127 90 196
216 255 41 19 75 37 75 40 0 9 -39 5 -45 -4z"/>
<path d="M577 1167 c-10 -20 -22 -39 -27 -42 -11 -7 -4 -25 9 -25 11 0 44 76
39 91 -2 7 -12 -4 -21 -24z"/>
<path d="M330 1165 c-13 -14 -20 -28 -17 -32 8 -8 59 27 65 45 7 21 -24 13
-48 -13z"/>
<path d="M32 1063 c-1 -68 1 -123 6 -123 4 0 6 37 4 82 -5 150 -8 165 -10 41z"/>
<path d="M415 1159 c6 -19 1 -37 -26 -91 -5 -11 -3 -18 7 -22 10 -4 14 -1 11
6 -2 7 9 28 26 45 27 29 29 35 19 58 -15 32 -47 35 -37 4z"/>
<path d="M658 1137 c-41 -36 -63 -73 -49 -81 11 -7 91 83 91 102 0 16 0 16
-42 -21z"/>
<path d="M2700 1114 c0 -16 23 -44 35 -44 22 0 18 28 -4 40 -22 11 -31 13 -31
4z"/>
<path d="M440 1036 c0 -9 7 -19 15 -22 8 -4 15 -11 15 -18 0 -13 39 -40 47
-32 3 3 0 12 -7 21 -10 12 -9 15 6 16 11 1 23 0 29 -1 32 -6 170 1 179 10 15
15 59 12 82 -5 26 -19 34 -19 34 4 0 30 -67 42 -126 23 -38 -13 -62 -13 -143
-4 -53 5 -104 13 -113 17 -13 5 -18 2 -18 -9z"/>
<path d="M2761 1031 c-9 -6 -9 -13 0 -35 15 -31 43 -31 47 1 4 24 -27 46 -47
34z"/>
<path d="M2800 925 c0 -25 14 -33 25 -15 9 15 43 12 52 -4 7 -13 72 -36 101
-36 7 0 12 14 11 38 0 33 -1 34 -10 14 -8 -20 -13 -23 -41 -16 -18 3 -44 15
-57 25 -13 11 -37 19 -52 19 -24 0 -29 -4 -29 -25z"/>
<path d="M1470 920 c-18 -18 -20 -31 -18 -97 2 -50 7 -78 16 -81 9 -3 12 19
12 87 0 50 3 91 6 91 3 0 20 -13 37 -29 18 -16 43 -38 56 -49 l24 -19 -34 -21
c-35 -21 -98 -82 -86 -82 16 0 73 29 93 46 38 34 47 62 30 89 -14 22 -96 85
-110 85 -3 0 -15 -9 -26 -20z"/>
<path d="M28 551 c-3 -397 -1 -474 13 -465 8 5 3 824 -6 832 -2 2 -5 -163 -7
-367z"/>
<path d="M2820 823 c0 -64 -18 -128 -61 -210 -20 -40 -34 -75 -30 -77 4 -3 21
10 39 29 31 31 32 34 15 44 -10 6 -12 11 -5 11 6 0 12 4 12 10 0 5 13 31 28
57 16 27 29 55 29 63 0 8 4 36 8 61 6 42 5 47 -14 52 -19 5 -21 1 -21 -40z"/>
<path d="M813 807 c-4 -7 -6 -22 -5 -33 2 -12 -4 -24 -13 -28 -9 -3 -13 -11
-10 -16 4 -6 3 -9 -2 -8 -4 2 -8 -1 -8 -7 0 -5 3 -9 8 -7 4 1 7 -2 7 -8 0 -25
18 -7 24 24 4 19 13 39 21 46 8 7 15 18 15 25 0 18 -28 27 -37 12z"/>
<path d="M2960 811 c0 -17 12 -41 21 -41 5 0 9 11 9 25 0 16 -6 25 -15 25 -8
0 -15 -4 -15 -9z"/>
<path d="M867 738 c-22 -48 -28 -136 -10 -143 8 -3 22 -1 31 5 16 9 16 9 0 10
-14 0 -18 8 -18 33 0 31 17 89 33 115 5 7 3 12 -6 12 -8 0 -21 -15 -30 -32z"/>
<path d="M684 727 c-16 -18 -30 -36 -31 -40 -2 -4 -16 -26 -33 -49 -16 -22
-30 -53 -30 -68 0 -14 -5 -31 -11 -37 -16 -16 8 -28 26 -13 9 7 12 22 9 39 -7
31 24 92 66 131 23 21 49 70 38 70 -3 0 -18 -15 -34 -33z"/>
<path d="M2974 718 c-13 -21 -12 -57 2 -62 11 -4 14 4 14 34 0 41 -4 48 -16
28z"/>
<path d="M906 684 c-7 -19 2 -37 15 -29 12 8 12 45 0 45 -5 0 -12 -7 -15 -16z"/>
<path d="M782 619 c-8 -12 -10 -25 -5 -30 12 -12 46 18 40 36 -9 21 -20 19
-35 -6z"/>
<path d="M2980 613 c0 -5 -2 -79 -5 -165 -2 -97 0 -158 5 -158 6 0 10 67 10
165 0 91 -2 165 -5 165 -3 0 -5 -3 -5 -7z"/>
<path d="M1430 580 c-15 -9 -5 -30 14 -30 8 0 19 6 25 14 9 11 7 15 -8 19 -10
2 -24 1 -31 -3z"/>
<path d="M736 572 c-11 -2 -34 -20 -52 -39 -18 -19 -26 -32 -19 -29 11 4 15
-2 15 -20 0 -13 -7 -27 -15 -30 -8 -4 -15 -11 -15 -18 0 -28 -22 -86 -31 -81
-5 4 -12 -2 -15 -12 -14 -47 -93 -211 -104 -218 -13 -8 -13 -45 1 -45 5 0 17
15 25 33 8 17 18 39 23 47 5 8 25 49 45 90 20 41 45 91 55 110 11 19 36 68 55
109 20 41 41 80 48 88 13 16 9 21 -16 15z"/>
<path d="M916 545 c3 -8 22 -17 42 -20 21 -3 64 -12 97 -21 33 -9 77 -18 98
-21 20 -3 37 -8 37 -12 0 -4 8 -7 18 -7 9 -1 40 -4 67 -8 l50 -7 -40 15 c-22
8 -53 17 -70 19 -41 6 -116 27 -137 38 -17 9 -73 23 -135 34 -26 4 -31 2 -27
-10z"/>
<path d="M1732 514 c-6 -12 -8 -24 -5 -28 4 -4 -3 -13 -15 -22 -12 -8 -20 -20
-17 -25 4 -5 -1 -9 -10 -9 -9 0 -13 -4 -10 -10 3 -5 10 -10 15 -10 13 0 62 89
58 108 -3 15 -5 14 -16 -4z"/>
<path d="M1583 489 c-3 -11 -14 -19 -27 -19 -27 0 -83 -36 -65 -42 12 -4 114
43 132 61 5 5 -1 11 -13 14 -16 4 -24 1 -27 -14z"/>
<path d="M1330 448 c0 -5 8 -8 18 -8 29 0 60 -28 67 -60 4 -17 13 -30 22 -30
8 0 20 -13 26 -30 6 -16 15 -30 20 -30 4 0 3 9 -3 19 -5 11 -10 31 -10 45 0
15 -8 30 -20 36 -12 6 -25 22 -30 34 -7 18 -18 25 -49 28 -23 2 -41 0 -41 -4z"/>
<path d="M2627 373 c-4 -3 -7 -12 -7 -20 0 -11 5 -11 20 -3 11 6 20 15 20 20
0 11 -23 13 -33 3z"/>
<path d="M1280 342 c0 -12 24 -22 50 -22 28 0 50 -39 50 -86 0 -65 18 -101 66
-134 49 -33 94 -39 114 -15 11 13 8 15 -21 15 -39 0 -93 34 -110 70 -7 14 -15
54 -18 90 l-6 65 -44 7 c-23 4 -52 10 -62 13 -10 4 -19 2 -19 -3z"/>
<path d="M1172 299 c-18 -5 -30 -14 -27 -19 9 -14 145 -13 145 1 0 7 -11 8
-30 4 -23 -5 -30 -3 -30 9 0 18 -10 19 -58 5z"/>
<path d="M2929 288 c0 -2 -2 -14 -3 -27 -2 -13 -21 -41 -43 -62 -46 -43 -62
-80 -31 -71 10 2 31 21 46 41 15 20 37 46 49 57 31 31 33 58 6 62 -13 2 -23 2
-24 0z"/>
<path d="M1070 229 c0 -11 85 -19 116 -10 l29 8 -35 6 c-45 7 -110 5 -110 -4z"/>
<path d="M1681 201 c-33 -14 -40 -19 -27 -24 32 -13 54 -7 70 18 19 29 16 29
-43 6z"/>
<path d="M983 193 c-20 -8 -15 -33 6 -33 10 0 22 -7 25 -16 3 -9 15 -14 28
-12 30 4 30 33 1 32 -14 0 -25 7 -29 18 -6 18 -10 20 -31 11z"/>
<path d="M1555 160 c-4 -6 8 -10 29 -10 20 0 36 5 36 10 0 6 -13 10 -29 10
-17 0 -33 -4 -36 -10z"/>
<path d="M1113 116 c0 -11 9 -13 36 -9 62 10 71 22 15 23 -37 0 -51 -4 -51
-14z"/>
<path d="M1493 53 c-1475 -3 -1483 -3 -1483 -23 0 -20 7 -20 1490 -20 l1490 0
0 25 c0 14 -3 24 -7 23 -5 -2 -675 -4 -1490 -5z"/>
</g>
</svg>
